<mxfile host="app.diagrams.net" modified="2022-06-24T23:19:09.878Z" agent="5.0 (Macintosh)" etag="vNqb4nlWuA_w7_HSENB4" version="20.0.3" type="github">
  <diagram id="F3vtVtR32gwNckF1_TBd" name="Page-1">
    <mxGraphModel dx="946" dy="551" grid="1" gridSize="10" guides="1" tooltips="1" connect="1" arrows="1" fold="1" page="1" pageScale="1" pageWidth="850" pageHeight="1100" math="0" shadow="0">
      <root>
        <mxCell id="0" />
        <mxCell id="1" parent="0" />
        <mxCell id="Rd8vmU82o228LC-c0hcn-1" value="START" style="rounded=1;whiteSpace=wrap;html=1;" vertex="1" parent="1">
          <mxGeometry x="160" y="40" width="120" height="30" as="geometry" />
        </mxCell>
        <mxCell id="Rd8vmU82o228LC-c0hcn-2" value="" style="endArrow=classic;html=1;rounded=0;exitX=0.5;exitY=1;exitDx=0;exitDy=0;" edge="1" parent="1" source="Rd8vmU82o228LC-c0hcn-1">
          <mxGeometry width="50" height="50" relative="1" as="geometry">
            <mxPoint x="400" y="320" as="sourcePoint" />
            <mxPoint x="220" y="120" as="targetPoint" />
          </mxGeometry>
        </mxCell>
        <mxCell id="Rd8vmU82o228LC-c0hcn-3" value="Is it strictly divisible &lt;br&gt;by 4?" style="rhombus;whiteSpace=wrap;html=1;" vertex="1" parent="1">
          <mxGeometry x="150" y="120" width="140" height="80" as="geometry" />
        </mxCell>
        <mxCell id="Rd8vmU82o228LC-c0hcn-6" value="" style="endArrow=none;html=1;rounded=0;" edge="1" parent="1">
          <mxGeometry width="50" height="50" relative="1" as="geometry">
            <mxPoint x="100" y="160" as="sourcePoint" />
            <mxPoint x="150" y="160" as="targetPoint" />
          </mxGeometry>
        </mxCell>
        <mxCell id="Rd8vmU82o228LC-c0hcn-7" value="" style="endArrow=classic;html=1;rounded=0;" edge="1" parent="1">
          <mxGeometry width="50" height="50" relative="1" as="geometry">
            <mxPoint x="100" y="160" as="sourcePoint" />
            <mxPoint x="100" y="240" as="targetPoint" />
          </mxGeometry>
        </mxCell>
        <mxCell id="Rd8vmU82o228LC-c0hcn-8" value="Not Leap year" style="rounded=1;whiteSpace=wrap;html=1;fillColor=#f8cecc;strokeColor=#b85450;" vertex="1" parent="1">
          <mxGeometry x="70" y="240" width="120" height="30" as="geometry" />
        </mxCell>
        <mxCell id="Rd8vmU82o228LC-c0hcn-9" value="No" style="text;html=1;align=center;verticalAlign=middle;resizable=0;points=[];autosize=1;strokeColor=none;fillColor=none;" vertex="1" parent="1">
          <mxGeometry x="95" y="128" width="40" height="30" as="geometry" />
        </mxCell>
        <mxCell id="Rd8vmU82o228LC-c0hcn-10" value="" style="endArrow=none;html=1;rounded=0;" edge="1" parent="1">
          <mxGeometry width="50" height="50" relative="1" as="geometry">
            <mxPoint x="290" y="160.5" as="sourcePoint" />
            <mxPoint x="500" y="161" as="targetPoint" />
          </mxGeometry>
        </mxCell>
        <mxCell id="Rd8vmU82o228LC-c0hcn-11" value="" style="endArrow=classic;html=1;rounded=0;" edge="1" parent="1">
          <mxGeometry width="50" height="50" relative="1" as="geometry">
            <mxPoint x="498.5" y="160" as="sourcePoint" />
            <mxPoint x="498.5" y="240" as="targetPoint" />
          </mxGeometry>
        </mxCell>
        <mxCell id="Rd8vmU82o228LC-c0hcn-13" value="Leap year" style="rounded=1;whiteSpace=wrap;html=1;fillColor=#dae8fc;strokeColor=#6c8ebf;" vertex="1" parent="1">
          <mxGeometry x="680" y="480" width="120" height="30" as="geometry" />
        </mxCell>
        <mxCell id="Rd8vmU82o228LC-c0hcn-15" value="Is it strictly divisible &lt;br&gt;by 100?" style="rhombus;whiteSpace=wrap;html=1;" vertex="1" parent="1">
          <mxGeometry x="429" y="240" width="140" height="80" as="geometry" />
        </mxCell>
        <mxCell id="Rd8vmU82o228LC-c0hcn-16" value="" style="endArrow=none;html=1;rounded=0;" edge="1" parent="1">
          <mxGeometry width="50" height="50" relative="1" as="geometry">
            <mxPoint x="691" y="399" as="sourcePoint" />
            <mxPoint x="741" y="399" as="targetPoint" />
          </mxGeometry>
        </mxCell>
        <mxCell id="Rd8vmU82o228LC-c0hcn-17" value="" style="endArrow=none;html=1;rounded=0;" edge="1" parent="1">
          <mxGeometry width="50" height="50" relative="1" as="geometry">
            <mxPoint x="379" y="279.5" as="sourcePoint" />
            <mxPoint x="429" y="279.5" as="targetPoint" />
          </mxGeometry>
        </mxCell>
        <mxCell id="Rd8vmU82o228LC-c0hcn-18" value="" style="endArrow=classic;html=1;rounded=0;" edge="1" parent="1">
          <mxGeometry width="50" height="50" relative="1" as="geometry">
            <mxPoint x="742" y="398" as="sourcePoint" />
            <mxPoint x="742" y="478" as="targetPoint" />
          </mxGeometry>
        </mxCell>
        <mxCell id="Rd8vmU82o228LC-c0hcn-19" value="" style="endArrow=classic;html=1;rounded=0;" edge="1" parent="1">
          <mxGeometry width="50" height="50" relative="1" as="geometry">
            <mxPoint x="379" y="279" as="sourcePoint" />
            <mxPoint x="379" y="359" as="targetPoint" />
          </mxGeometry>
        </mxCell>
        <mxCell id="Rd8vmU82o228LC-c0hcn-21" value="No" style="text;html=1;align=center;verticalAlign=middle;resizable=0;points=[];autosize=1;strokeColor=none;fillColor=none;" vertex="1" parent="1">
          <mxGeometry x="370" y="250" width="40" height="30" as="geometry" />
        </mxCell>
        <mxCell id="Rd8vmU82o228LC-c0hcn-22" value="Leap year" style="rounded=1;whiteSpace=wrap;html=1;fillColor=#dae8fc;strokeColor=#6c8ebf;" vertex="1" parent="1">
          <mxGeometry x="290" y="360" width="120" height="30" as="geometry" />
        </mxCell>
        <mxCell id="Rd8vmU82o228LC-c0hcn-23" value="" style="endArrow=none;html=1;rounded=0;" edge="1" parent="1">
          <mxGeometry width="50" height="50" relative="1" as="geometry">
            <mxPoint x="570" y="280" as="sourcePoint" />
            <mxPoint x="620" y="280" as="targetPoint" />
          </mxGeometry>
        </mxCell>
        <mxCell id="Rd8vmU82o228LC-c0hcn-24" value="" style="endArrow=classic;html=1;rounded=0;" edge="1" parent="1">
          <mxGeometry width="50" height="50" relative="1" as="geometry">
            <mxPoint x="620" y="279" as="sourcePoint" />
            <mxPoint x="620" y="359" as="targetPoint" />
          </mxGeometry>
        </mxCell>
        <mxCell id="Rd8vmU82o228LC-c0hcn-25" value="Yes" style="text;html=1;align=center;verticalAlign=middle;resizable=0;points=[];autosize=1;strokeColor=none;fillColor=none;" vertex="1" parent="1">
          <mxGeometry x="288" y="127" width="40" height="30" as="geometry" />
        </mxCell>
        <mxCell id="Rd8vmU82o228LC-c0hcn-27" value="Yes" style="text;html=1;align=center;verticalAlign=middle;resizable=0;points=[];autosize=1;strokeColor=none;fillColor=none;" vertex="1" parent="1">
          <mxGeometry x="583" y="256" width="40" height="30" as="geometry" />
        </mxCell>
        <mxCell id="Rd8vmU82o228LC-c0hcn-28" value="Yes" style="text;html=1;align=center;verticalAlign=middle;resizable=0;points=[];autosize=1;strokeColor=none;fillColor=none;" vertex="1" parent="1">
          <mxGeometry x="700" y="370" width="40" height="30" as="geometry" />
        </mxCell>
        <mxCell id="Rd8vmU82o228LC-c0hcn-29" value="Is it strictly divisible &lt;br&gt;by 400?" style="rhombus;whiteSpace=wrap;html=1;" vertex="1" parent="1">
          <mxGeometry x="550" y="359" width="140" height="80" as="geometry" />
        </mxCell>
        <mxCell id="Rd8vmU82o228LC-c0hcn-30" value="" style="endArrow=none;html=1;rounded=0;" edge="1" parent="1">
          <mxGeometry width="50" height="50" relative="1" as="geometry">
            <mxPoint x="499" y="398.5" as="sourcePoint" />
            <mxPoint x="549" y="398.5" as="targetPoint" />
          </mxGeometry>
        </mxCell>
        <mxCell id="Rd8vmU82o228LC-c0hcn-31" value="" style="endArrow=classic;html=1;rounded=0;" edge="1" parent="1">
          <mxGeometry width="50" height="50" relative="1" as="geometry">
            <mxPoint x="499" y="398" as="sourcePoint" />
            <mxPoint x="499" y="478" as="targetPoint" />
          </mxGeometry>
        </mxCell>
        <mxCell id="Rd8vmU82o228LC-c0hcn-32" value="Not Leap year" style="rounded=1;whiteSpace=wrap;html=1;fillColor=#f8cecc;strokeColor=#b85450;" vertex="1" parent="1">
          <mxGeometry x="439" y="480" width="120" height="30" as="geometry" />
        </mxCell>
        <mxCell id="Rd8vmU82o228LC-c0hcn-33" value="No" style="text;html=1;align=center;verticalAlign=middle;resizable=0;points=[];autosize=1;strokeColor=none;fillColor=none;" vertex="1" parent="1">
          <mxGeometry x="490" y="370" width="40" height="30" as="geometry" />
        </mxCell>
      </root>
    </mxGraphModel>
  </diagram>
</mxfile>
